<?xml version="1.0" encoding="utf-8"?>
<!-- Generator: Adobe Illustrator 27.9.0, SVG Export Plug-In . SVG Version: 6.00 Build 0)  -->
<svg version="1.1" id="Layer_1" xmlns="http://www.w3.org/2000/svg" xmlns:xlink="http://www.w3.org/1999/xlink" x="0px" y="0px"
	 viewBox="0 0 72 8.1" style="enable-background:new 0 0 72 8.1;" xml:space="preserve">
<g>
	<path d="M3.4,8L0.9,0.9C0.8,0.6,0.6,0.4,0.3,0.3L0,0.3V0h3.3v0.2L3,0.3c-0.2,0-0.3,0.1-0.3,0.3s0,0.3,0.1,0.5l1.7,5.1L6.2,1
		c0.1-0.2,0.1-0.3,0.1-0.5S6.2,0.4,6,0.3L5.7,0.2V0h1.8v0.3L7.2,0.3c-0.2,0-0.3,0.1-0.4,0.2C6.8,0.6,6.7,0.8,6.7,0.9L4.3,8H3.4z"/>
	<path d="M9.8,2c0.5,0,0.9,0.1,1.3,0.3c0.4,0.2,0.6,0.5,0.8,0.9c0.2,0.4,0.3,0.8,0.3,1.3c0,0.1,0,0.2,0,0.3c0,0.1,0,0.2,0,0.3H8.5
		c0,0.8,0.2,1.4,0.5,1.8c0.3,0.4,0.7,0.5,1.3,0.5c0.4,0,0.7-0.1,1-0.2c0.2-0.1,0.5-0.3,0.7-0.6l0.2,0.2c-0.2,0.4-0.6,0.8-1,1
		C10.7,8,10.3,8.1,9.7,8.1C9.1,8.1,8.6,8,8.2,7.7c-0.4-0.2-0.8-0.6-1-1c-0.2-0.5-0.4-1-0.4-1.6c0-0.7,0.1-1.2,0.4-1.7
		C7.5,3,7.9,2.6,8.3,2.4C8.8,2.1,9.3,2,9.8,2z M9.7,2.3c-0.2,0-0.4,0.1-0.6,0.2S8.8,2.9,8.7,3.2C8.6,3.6,8.5,4,8.5,4.6h2.1
		c0.1-0.8,0.1-1.4-0.1-1.8C10.4,2.5,10.1,2.3,9.7,2.3z"/>
	<path d="M12.8,7.9V7.7l0.2,0c0.3-0.1,0.4-0.3,0.4-0.6V3.5c0-0.2,0-0.3-0.1-0.4C13.2,3,13.1,3,13,3l-0.2,0V2.7L14.7,2l0.1,0.1
		L15,2.9c0.3-0.3,0.6-0.5,1-0.6S16.6,2,17,2c0.5,0,0.9,0.1,1.2,0.4c0.3,0.3,0.4,0.7,0.4,1.3v3.3c0,0.3,0.1,0.5,0.4,0.6l0.1,0v0.2
		h-2.8V7.7l0.2,0C16.9,7.6,17,7.4,17,7.1V3.5c0-0.3-0.1-0.5-0.2-0.6c-0.1-0.1-0.3-0.2-0.6-0.2c-0.4,0-0.8,0.2-1.2,0.5v3.9
		c0,0.3,0.1,0.5,0.4,0.6l0.1,0v0.2H12.8z"/>
	<path d="M21.9,8.1c-0.5,0-0.9-0.1-1.2-0.4c-0.3-0.2-0.4-0.6-0.4-1.2c0-0.2,0-0.4,0-0.5s0-0.4,0-0.6V2.5h-0.9V2.3l0.3,0
		c0.2,0,0.4-0.1,0.6-0.2c0.2-0.1,0.3-0.2,0.4-0.4l0.8-1.1h0.4l0,1.7h1.4v0.4h-1.4v4.1c0,0.3,0.1,0.5,0.2,0.6s0.3,0.2,0.5,0.2
		c0.2,0,0.3,0,0.4-0.1s0.3-0.2,0.4-0.3l0.2,0.2c-0.2,0.3-0.4,0.5-0.6,0.6S22.3,8.1,21.9,8.1z"/>
	<path d="M26,8.1c-0.3,0-0.6-0.1-0.9-0.2c-0.3-0.1-0.5-0.3-0.6-0.6s-0.2-0.6-0.2-1.1l0-3c0-0.2,0-0.3-0.1-0.4
		c-0.1-0.1-0.2-0.1-0.3-0.2l-0.1,0V2.5l2.1-0.4L26,2.2L26,3.9v2.7c0,0.3,0.1,0.5,0.2,0.6s0.3,0.2,0.6,0.2c0.2,0,0.4,0,0.6-0.1
		C27.6,7.2,27.8,7.1,28,7l0-3.7c0-0.2,0-0.3-0.1-0.4c-0.1-0.1-0.1-0.1-0.3-0.2l-0.1,0V2.5l2-0.4l0.1,0.1l0,1.7V7
		c0,0.2,0,0.3,0.1,0.4c0,0.1,0.1,0.2,0.3,0.2l0.2,0v0.2l-2,0.1L28,7.3c-0.3,0.2-0.6,0.4-0.9,0.6S26.4,8.1,26,8.1z"/>
	<path d="M30.6,7.9V7.7l0.2-0.1c0.2,0,0.3-0.1,0.3-0.2c0.1-0.1,0.1-0.2,0.1-0.4V3.5c0-0.2,0-0.3-0.1-0.4S30.9,3,30.8,3l-0.2,0V2.7
		l2-0.7l0.1,0.1l0.1,1.1v0.1c0.1-0.2,0.3-0.4,0.5-0.6s0.4-0.3,0.6-0.5C34.1,2.1,34.3,2,34.5,2c0.3,0,0.5,0.1,0.7,0.2
		c0.2,0.2,0.2,0.4,0.2,0.6c0,0.3-0.1,0.5-0.2,0.6c-0.2,0.1-0.3,0.2-0.6,0.2c-0.3,0-0.6-0.1-0.8-0.4l0,0c-0.1-0.1-0.2-0.2-0.3-0.2
		c-0.1,0-0.2,0-0.3,0.1c-0.1,0.1-0.2,0.2-0.2,0.3c-0.1,0.1-0.1,0.2-0.2,0.4V7c0,0.2,0,0.3,0.1,0.4s0.2,0.2,0.3,0.2l0.4,0.1v0.2H30.6
		z"/>
	<path d="M38.6,2c0.5,0,0.9,0.1,1.3,0.3c0.4,0.2,0.6,0.5,0.8,0.9c0.2,0.4,0.3,0.8,0.3,1.3c0,0.1,0,0.2,0,0.3c0,0.1,0,0.2,0,0.3h-3.6
		c0,0.8,0.2,1.4,0.5,1.8c0.3,0.4,0.7,0.5,1.3,0.5c0.4,0,0.7-0.1,1-0.2c0.2-0.1,0.5-0.3,0.7-0.6L41,6.7c-0.2,0.4-0.6,0.8-1,1
		c-0.4,0.2-0.9,0.4-1.5,0.4c-0.6,0-1.1-0.1-1.5-0.4c-0.4-0.2-0.8-0.6-1-1c-0.2-0.5-0.4-1-0.4-1.6c0-0.7,0.1-1.2,0.4-1.7
		c0.3-0.5,0.7-0.8,1.1-1.1C37.7,2.1,38.1,2,38.6,2z M38.6,2.3c-0.2,0-0.4,0.1-0.6,0.2s-0.3,0.4-0.4,0.7c-0.1,0.3-0.2,0.8-0.2,1.4
		h2.1c0.1-0.8,0.1-1.4-0.1-1.8C39.3,2.5,39,2.3,38.6,2.3z"/>
	<path d="M41.6,7.9V7.7l0.2-0.1c0.2,0,0.3-0.1,0.3-0.2c0.1-0.1,0.1-0.2,0.1-0.4V1c0-0.2,0-0.3-0.1-0.4c0-0.1-0.1-0.2-0.3-0.2
		l-0.3-0.1V0h2.3l2.3,5.9L48.2,0h2.3v0.3l-0.2,0.1c-0.2,0-0.3,0.1-0.3,0.2C50,0.6,50,0.8,50,0.9c0,0.5,0,0.9,0,1.4s0,0.9,0,1.4v0.5
		c0,0.5,0,0.9,0,1.4c0,0.5,0,0.9,0,1.4c0,0.2,0,0.3,0.1,0.4s0.1,0.2,0.3,0.2l0.2,0.1v0.3h-2.9V7.7l0.3-0.1c0.2-0.1,0.2-0.1,0.3-0.2
		c0-0.1,0.1-0.2,0.1-0.4V4.4l0-3.2l-2.4,6.8h-0.7l-2.6-6.7l0,2.7v3c0,0.2,0,0.3,0.1,0.4s0.1,0.2,0.3,0.2l0.2,0.1v0.3H41.6z"/>
	<path d="M53.8,2c0.5,0,0.9,0.1,1.3,0.3c0.4,0.2,0.6,0.5,0.8,0.9c0.2,0.4,0.3,0.8,0.3,1.3c0,0.1,0,0.2,0,0.3c0,0.1,0,0.2,0,0.3h-3.6
		c0,0.8,0.2,1.4,0.5,1.8c0.3,0.4,0.7,0.5,1.3,0.5c0.4,0,0.7-0.1,1-0.2C55.5,7,55.8,6.8,56,6.5l0.2,0.2c-0.2,0.4-0.6,0.8-1,1
		c-0.4,0.2-0.9,0.4-1.5,0.4c-0.6,0-1.1-0.1-1.5-0.4c-0.4-0.2-0.8-0.6-1-1c-0.2-0.5-0.4-1-0.4-1.6c0-0.7,0.1-1.2,0.4-1.7
		c0.3-0.5,0.7-0.8,1.1-1.1C52.8,2.1,53.3,2,53.8,2z M53.7,2.3c-0.2,0-0.4,0.1-0.6,0.2s-0.3,0.4-0.4,0.7c-0.1,0.3-0.2,0.8-0.2,1.4
		h2.1c0.1-0.8,0.1-1.4-0.1-1.8C54.4,2.5,54.2,2.3,53.7,2.3z"/>
	<path d="M59.1,8.1c-0.5,0-0.9-0.1-1.2-0.4c-0.3-0.2-0.4-0.6-0.4-1.2c0-0.2,0-0.4,0-0.5s0-0.4,0-0.6V2.5h-0.9V2.3l0.3,0
		c0.2,0,0.4-0.1,0.6-0.2c0.2-0.1,0.3-0.2,0.4-0.4l0.8-1.1h0.4l0,1.7h1.4v0.4h-1.4v4.1c0,0.3,0.1,0.5,0.2,0.6s0.3,0.2,0.5,0.2
		c0.2,0,0.3,0,0.4-0.1s0.3-0.2,0.4-0.3l0.2,0.2c-0.2,0.3-0.4,0.5-0.6,0.6S59.5,8.1,59.1,8.1z"/>
	<path d="M64.1,2c0.5,0,0.9,0.1,1.3,0.3c0.4,0.2,0.6,0.5,0.8,0.9c0.2,0.4,0.3,0.8,0.3,1.3c0,0.1,0,0.2,0,0.3c0,0.1,0,0.2,0,0.3h-3.6
		c0,0.8,0.2,1.4,0.5,1.8c0.3,0.4,0.7,0.5,1.3,0.5c0.4,0,0.7-0.1,1-0.2c0.2-0.1,0.5-0.3,0.7-0.6l0.2,0.2c-0.2,0.4-0.6,0.8-1,1
		C65.1,8,64.6,8.1,64,8.1c-0.6,0-1.1-0.1-1.5-0.4c-0.4-0.2-0.8-0.6-1-1c-0.2-0.5-0.4-1-0.4-1.6c0-0.7,0.1-1.2,0.4-1.7
		c0.3-0.5,0.7-0.8,1.1-1.1C63.1,2.1,63.6,2,64.1,2z M64,2.3c-0.2,0-0.4,0.1-0.6,0.2S63.1,2.9,63,3.2c-0.1,0.3-0.2,0.8-0.2,1.4H65
		c0.1-0.8,0.1-1.4-0.1-1.8C64.8,2.5,64.5,2.3,64,2.3z"/>
	<path d="M67.1,7.9V7.7l0.2-0.1c0.2,0,0.3-0.1,0.3-0.2c0.1-0.1,0.1-0.2,0.1-0.4V3.5c0-0.2,0-0.3-0.1-0.4S67.5,3,67.3,3l-0.2,0V2.7
		l2-0.7l0.1,0.1l0.1,1.1v0.1c0.1-0.2,0.3-0.4,0.5-0.6s0.4-0.3,0.6-0.5C70.6,2.1,70.8,2,71.1,2c0.3,0,0.5,0.1,0.7,0.2
		C71.9,2.4,72,2.6,72,2.8c0,0.3-0.1,0.5-0.2,0.6c-0.2,0.1-0.3,0.2-0.6,0.2c-0.3,0-0.6-0.1-0.8-0.4l0,0c-0.1-0.1-0.2-0.2-0.3-0.2
		c-0.1,0-0.2,0-0.3,0.1c-0.1,0.1-0.2,0.2-0.2,0.3c-0.1,0.1-0.1,0.2-0.2,0.4V7c0,0.2,0,0.3,0.1,0.4s0.2,0.2,0.3,0.2l0.4,0.1v0.2H67.1
		z"/>
</g>
</svg>
